<?xml version="1.0" standalone="no"?>
<!DOCTYPE svg PUBLIC "-//W3C//DTD SVG 20010904//EN"
 "http://www.w3.org/TR/2001/REC-SVG-20010904/DTD/svg10.dtd">
<svg version="1.0" xmlns="http://www.w3.org/2000/svg"
 width="1014.000000pt" height="1014.000000pt" viewBox="0 0 1014.000000 1014.000000"
 preserveAspectRatio="xMidYMid meet">
<metadata>
Created by potrace 1.14, written by Peter Selinger 2001-2017
</metadata>
<g transform="translate(0.000000,1014.000000) scale(0.100000,-0.100000)"
fill="#000000" stroke="none">
<path d="M3966 9787 c-16 -12 -39 -32 -52 -44 -13 -12 -24 -19 -24 -15 0 4 -6
0 -13 -8 -7 -9 -30 -29 -52 -45 -22 -17 -47 -37 -55 -46 -8 -8 -23 -18 -32
-22 -10 -3 -18 -11 -18 -17 0 -6 -4 -9 -9 -5 -6 3 -13 0 -18 -7 -8 -14 -51
-50 -97 -83 -16 -11 -48 -36 -71 -55 -76 -63 -85 -70 -89 -70 -4 0 -57 -44
-87 -72 -11 -10 -23 -18 -28 -18 -5 0 -11 -3 -13 -7 -1 -5 -32 -30 -68 -58
-36 -27 -70 -54 -76 -60 -7 -5 -25 -19 -40 -30 -16 -11 -39 -30 -52 -42 -13
-13 -25 -23 -28 -23 -3 0 -11 -6 -18 -12 -7 -7 -28 -24 -47 -38 -18 -14 -44
-35 -56 -47 -13 -12 -23 -19 -23 -15 -1 4 -10 -4 -20 -17 -11 -13 -20 -20 -20
-16 0 5 -10 -3 -22 -16 -13 -14 -27 -25 -31 -26 -5 -1 -21 -12 -35 -25 -23
-20 -51 -42 -130 -103 -7 -5 -25 -21 -40 -35 -15 -14 -32 -27 -37 -28 -6 -2
-24 -16 -42 -30 -17 -15 -74 -60 -127 -101 -53 -41 -96 -78 -96 -83 0 -5 -4
-7 -9 -3 -5 3 -17 -5 -25 -17 -9 -12 -16 -18 -16 -13 0 6 -3 6 -8 0 -4 -5 -29
-28 -57 -50 -27 -21 -52 -42 -55 -46 -3 -3 -12 -10 -21 -15 -23 -13 -87 -65
-115 -93 -13 -13 -24 -20 -24 -15 0 5 -4 4 -8 -1 -4 -6 -27 -26 -52 -44 -25
-19 -49 -39 -55 -45 -5 -6 -40 -31 -77 -55 -38 -24 -68 -47 -68 -52 0 -5 -4
-8 -8 -7 -7 3 -126 -75 -280 -184 -37 -26 -76 -53 -86 -60 -11 -7 -76 -55
-145 -107 -69 -51 -132 -96 -138 -98 -7 -3 -10 -9 -7 -14 3 -5 -1 -9 -8 -9 -8
0 -31 -15 -51 -34 -20 -18 -37 -32 -37 -30 0 2 -8 -4 -18 -13 -10 -10 -48 -43
-83 -73 -97 -84 -349 -340 -349 -356 0 -4 -32 -43 -56 -68 -15 -16 -94 -134
-94 -140 0 -4 -9 -15 -20 -26 -12 -12 -18 -25 -15 -30 4 -6 1 -10 -5 -10 -6 0
-16 -12 -23 -27 -6 -16 -15 -31 -20 -34 -5 -3 -9 -12 -10 -20 -2 -8 -13 -32
-25 -52 -12 -21 -22 -40 -22 -42 0 -3 -11 -29 -25 -59 -31 -67 -48 -108 -50
-121 -1 -5 -3 -13 -5 -17 -1 -5 -3 -11 -5 -15 -1 -5 -4 -15 -8 -23 -8 -21 -27
-84 -32 -106 -2 -10 -10 -44 -18 -74 -8 -30 -20 -89 -27 -130 -13 -79 -13 -85
-26 -195 -4 -38 -8 -845 -8 -1792 l-1 -1723 675 3 675 2 2 1685 c0 927 3 1696
6 1710 17 97 46 190 81 261 25 49 94 159 106 169 4 3 19 23 33 45 15 22 27 36
27 31 0 -5 13 7 28 27 33 41 117 123 192 187 29 25 58 50 64 56 6 5 37 29 69
52 31 24 57 47 57 52 0 6 4 9 8 7 9 -2 122 75 154 106 10 9 18 14 18 11 0 -3
17 7 38 23 20 16 73 53 117 83 44 30 83 59 87 64 4 6 8 7 8 3 0 -4 6 -3 13 2
28 24 108 81 112 81 12 0 135 93 135 102 0 6 3 9 6 5 3 -3 13 1 22 8 10 7 53
42 97 77 117 93 116 91 136 112 11 11 19 16 19 10 0 -5 3 -5 8 1 4 6 30 28 57
50 28 22 55 44 62 50 6 5 23 19 38 30 15 11 38 30 51 42 13 12 24 20 24 17 0
-3 9 3 19 13 11 10 53 43 95 73 41 30 75 61 75 69 1 8 4 12 7 8 4 -3 31 14 61
38 30 25 59 45 65 45 5 0 7 4 3 9 -3 5 3 12 12 15 10 3 30 16 45 28 62 54 73
62 78 62 3 0 19 13 37 29 18 16 45 39 61 51 25 18 141 107 206 158 21 16 24
15 71 -23 28 -22 70 -54 94 -71 43 -30 54 -39 105 -85 14 -13 29 -23 34 -23 5
0 17 -9 27 -20 10 -11 22 -20 26 -20 4 0 19 -10 33 -22 64 -60 183 -148 190
-141 3 4 6 -1 6 -11 0 -9 5 -14 10 -11 6 3 10 2 10 -3 0 -5 21 -24 48 -42 26
-19 49 -38 50 -42 2 -4 10 -8 17 -8 7 0 15 -5 17 -11 4 -12 158 88 158 103 0
5 4 7 9 4 5 -4 22 4 38 17 15 13 62 45 103 73 124 83 185 127 192 138 4 6 8 7
8 3 0 -6 62 35 106 71 5 5 21 15 34 22 13 7 33 21 44 31 11 11 24 19 29 19 4
0 15 6 22 13 32 28 45 37 53 37 4 0 17 8 28 18 10 9 60 45 109 78 159 107 190
129 193 137 2 4 9 7 15 7 19 1 59 39 52 50 -3 5 -27 24 -53 42 -26 17 -49 34
-52 37 -3 4 -22 17 -42 31 -21 14 -38 28 -38 33 0 4 -7 7 -15 7 -8 0 -15 4
-15 8 0 4 -12 15 -27 24 -16 9 -38 25 -50 35 -54 46 -64 53 -72 53 -5 0 -12 7
-15 16 -4 9 -9 14 -12 11 -4 -3 -12 -1 -19 6 -6 7 -24 21 -39 32 -16 11 -33
25 -40 30 -6 6 -36 28 -66 50 -30 22 -57 42 -60 45 -3 3 -21 17 -40 30 -43 30
-56 40 -81 63 -10 9 -23 17 -29 17 -5 0 -10 5 -10 10 0 6 -6 10 -14 10 -8 0
-16 3 -18 8 -1 4 -30 27 -63 52 -33 24 -66 50 -74 58 -8 7 -26 21 -40 30 -28
19 -266 194 -293 217 -9 7 -29 22 -45 32 -15 10 -39 28 -53 40 -14 13 -28 23
-32 23 -4 0 -24 16 -45 35 -21 19 -42 35 -46 35 -4 0 -17 9 -29 20 -12 11 -40
32 -62 47 -23 15 -43 30 -46 33 -5 5 -90 69 -154 115 -15 11 -40 30 -54 43
-15 12 -35 25 -44 28 -10 3 -18 10 -18 15 0 16 -24 10 -54 -14z"/>
<path d="M6425 7898 c-44 -28 -81 -55 -83 -60 -2 -4 -10 -8 -17 -8 -8 0 -20
-8 -27 -19 -7 -10 -17 -19 -23 -21 -18 -4 -65 -34 -65 -42 0 -4 -7 -8 -15 -8
-8 0 -15 -5 -15 -11 0 -5 -4 -7 -10 -4 -5 3 -10 1 -10 -4 0 -6 -4 -11 -10 -11
-9 0 -36 -19 -66 -48 -8 -7 -14 -11 -14 -7 0 5 -85 -50 -100 -65 -3 -3 -25
-18 -50 -34 -25 -16 -55 -38 -67 -49 -13 -11 -23 -16 -23 -11 0 5 -4 4 -8 -2
-4 -5 -24 -20 -44 -33 -21 -12 -38 -28 -38 -33 0 -6 -3 -8 -6 -5 -4 4 -24 -7
-44 -23 -20 -16 -40 -27 -44 -23 -3 3 -6 2 -6 -3 0 -5 -16 -18 -35 -28 -19
-11 -32 -24 -28 -30 3 -6 3 -8 -2 -4 -6 6 -103 -53 -150 -90 -5 -4 -37 -25
-70 -47 -33 -22 -62 -42 -65 -46 -3 -3 -20 -14 -37 -23 -18 -9 -33 -22 -33
-28 0 -6 -3 -8 -6 -5 -4 4 -24 -7 -44 -23 -21 -17 -43 -30 -49 -30 -6 0 -11
-3 -11 -8 0 -4 -16 -16 -35 -26 -19 -11 -35 -23 -35 -28 0 -5 -4 -6 -10 -3 -5
3 -10 1 -10 -5 0 -6 -8 -14 -18 -18 -10 -4 -57 -34 -106 -67 -48 -33 -98 -67
-110 -75 -12 -8 -39 -26 -59 -38 -20 -13 -37 -28 -37 -33 0 -5 -7 -9 -15 -9
-8 0 -15 -5 -15 -11 0 -5 -4 -8 -9 -5 -4 3 -19 -6 -31 -19 -13 -14 -28 -25
-33 -25 -6 0 -34 -18 -63 -40 -29 -22 -56 -40 -59 -40 -8 0 -119 -83 -123 -93
-2 -4 -8 -5 -13 -1 -5 3 -9 0 -9 -5 0 -6 -6 -11 -14 -11 -8 0 -16 -4 -18 -8
-3 -7 -132 -102 -194 -143 -13 -9 -42 -32 -64 -51 -21 -20 -41 -33 -44 -30 -3
2 -8 -3 -12 -12 -3 -9 -11 -16 -16 -16 -6 0 -30 -17 -52 -37 -23 -21 -71 -63
-107 -93 -76 -65 -287 -276 -344 -344 -22 -26 -46 -54 -53 -62 -7 -8 -11 -14
-8 -14 3 0 -2 -9 -11 -19 -33 -36 -43 -50 -43 -60 0 -5 -4 -11 -8 -13 -11 -4
-78 -103 -72 -104 3 -1 -2 -10 -11 -20 -9 -11 -29 -44 -45 -74 -16 -30 -33
-58 -37 -61 -5 -3 -8 -9 -7 -13 1 -4 -7 -26 -18 -49 -46 -97 -103 -245 -108
-282 -1 -5 -3 -12 -4 -15 -1 -3 -3 -12 -5 -20 -2 -8 -7 -26 -10 -40 -4 -14 -8
-32 -9 -40 -1 -9 -6 -21 -10 -28 -4 -7 -5 -16 -2 -19 3 -3 1 -13 -4 -23 -5 -9
-11 -39 -15 -66 -8 -73 -15 -117 -21 -144 -4 -14 -8 -659 -9 -1435 -2 -775 -3
-1419 -4 -1430 -1 -20 -6 -20 -1470 -20 l-1469 0 1 -676 0 -676 3931 3 c2162
2 3954 5 3981 7 56 5 147 17 179 23 11 2 36 6 56 9 87 13 246 54 351 90 41 15
79 27 84 29 6 1 20 7 32 14 12 7 28 12 37 12 8 0 22 7 30 16 9 8 16 13 16 10
0 -4 22 5 50 19 27 14 53 26 57 27 5 1 34 17 65 35 31 18 59 33 62 33 9 0 121
74 124 83 2 4 9 7 15 7 7 0 25 11 40 25 15 14 27 22 27 18 0 -4 4 -3 8 2 4 6
36 33 72 60 36 28 78 62 93 78 16 15 33 27 39 27 6 0 9 3 5 6 -6 7 16 34 28
34 12 0 73 68 67 74 -3 3 0 6 7 6 16 0 41 25 41 40 0 6 5 8 10 5 6 -3 10 -2
10 4 0 6 10 19 22 31 12 11 19 20 15 20 -3 0 12 18 33 40 22 23 40 45 40 50 0
5 8 14 18 19 9 6 13 11 9 11 -4 0 2 10 14 22 11 13 33 41 47 63 64 100 121
195 127 214 3 12 11 21 16 21 5 0 9 5 9 11 0 7 18 49 40 94 47 96 122 297 136
360 1 6 6 28 12 50 6 22 14 52 17 68 3 15 8 39 11 55 3 15 7 38 9 52 2 14 5
25 6 25 2 0 4 12 14 90 16 125 16 170 10 840 -3 268 -12 610 -20 720 -5 71
-16 194 -21 238 -3 23 -7 61 -9 85 -4 39 -13 97 -31 192 -4 19 -7 42 -8 50 -1
9 -6 21 -10 28 -4 7 -6 15 -3 18 2 3 -7 44 -20 92 -13 48 -25 94 -27 102 -26
107 -138 381 -174 423 -8 9 -12 17 -9 17 4 0 -3 18 -14 40 -12 22 -25 40 -30
40 -5 0 -8 3 -7 8 2 4 -13 32 -32 62 -19 30 -37 60 -40 65 -15 30 -83 115 -93
115 -6 0 -7 3 -4 6 5 5 -37 61 -98 130 -27 31 -142 150 -149 154 -4 3 -49 44
-99 93 -51 48 -95 87 -99 87 -4 0 -19 11 -34 25 -15 14 -70 57 -123 97 -53 40
-99 77 -103 83 -4 5 -8 7 -8 3 0 -4 -12 4 -26 17 -15 14 -31 25 -36 25 -5 0
-21 11 -36 25 -15 14 -30 25 -35 25 -4 0 -18 9 -30 20 -12 11 -51 42 -87 68
-36 26 -69 50 -75 55 -5 4 -48 35 -95 69 -47 34 -86 66 -88 70 -2 4 -8 8 -13
8 -6 0 -22 11 -37 25 -15 14 -30 25 -34 25 -4 0 -19 11 -34 25 -15 14 -33 25
-40 25 -8 0 -14 4 -14 9 0 5 -16 19 -35 31 -20 12 -41 27 -48 33 -6 7 -29 23
-49 37 -21 14 -38 28 -38 33 0 4 -7 7 -15 7 -8 0 -15 5 -15 10 0 6 -4 10 -10
10 -5 0 -19 8 -29 18 -10 9 -35 28 -55 42 -20 14 -59 42 -85 63 -27 20 -53 37
-59 37 -6 0 -12 4 -14 9 -3 8 -150 121 -203 155 -17 11 -35 24 -42 30 -34 30
-43 36 -43 29 0 -4 -5 0 -11 10 -5 9 -14 17 -19 17 -6 0 -19 8 -29 18 -29 25
-43 37 -76 58 -17 10 -37 25 -45 31 -17 14 -297 220 -330 243 -12 8 -30 22
-40 30 -50 40 -67 53 -92 68 -16 9 -28 20 -28 24 0 4 -6 8 -14 8 -8 0 -16 3
-18 8 -1 4 -28 25 -58 48 -133 98 -169 124 -172 124 -2 0 -39 -23 -83 -52z
m121 -1704 c57 -41 109 -74 114 -74 6 0 10 -4 10 -10 0 -5 13 -16 29 -25 16
-8 35 -20 43 -27 8 -7 21 -17 31 -23 44 -27 192 -131 195 -137 2 -5 10 -8 17
-8 7 0 15 -3 17 -7 5 -12 78 -65 78 -57 0 4 8 -3 19 -14 10 -12 21 -22 25 -22
9 0 78 -51 88 -65 5 -7 8 -7 8 0 0 6 3 6 8 -1 4 -5 36 -30 72 -55 36 -24 67
-46 70 -49 12 -12 129 -90 135 -90 3 0 18 -11 33 -25 15 -14 32 -25 39 -25 7
0 13 -5 13 -10 0 -6 8 -14 18 -17 9 -4 29 -16 44 -27 47 -37 77 -57 84 -55 4
0 10 -3 13 -8 12 -17 91 -74 91 -66 0 4 4 3 8 -4 4 -6 39 -33 77 -59 39 -26
72 -51 73 -56 2 -4 9 -8 16 -8 7 0 21 -9 31 -20 10 -11 24 -20 31 -20 7 0 14
-3 16 -7 2 -5 30 -28 63 -53 33 -25 65 -49 71 -55 7 -5 33 -28 59 -50 73 -61
185 -174 185 -185 0 -5 4 -10 10 -10 5 0 24 -21 41 -47 18 -27 35 -50 38 -53
29 -25 122 -235 135 -306 2 -11 9 -37 15 -59 6 -22 13 -58 16 -80 3 -22 8 -51
10 -65 2 -14 7 -54 11 -90 4 -36 8 -78 11 -95 17 -133 33 -1257 19 -1382 -10
-101 -59 -261 -104 -343 -37 -68 -86 -145 -94 -148 -5 -2 -8 -9 -8 -15 0 -7
-9 -18 -20 -25 -12 -7 -19 -16 -17 -20 3 -4 -13 -20 -34 -37 -21 -16 -38 -34
-39 -40 -1 -10 -37 -38 -144 -112 -34 -23 -67 -47 -73 -53 -7 -6 -13 -9 -13
-6 0 3 -21 -6 -47 -19 -27 -13 -67 -29 -90 -37 -24 -7 -43 -17 -43 -21 0 -5
-4 -6 -9 -3 -5 3 -30 -1 -57 -9 -27 -8 -65 -17 -84 -21 -35 -7 -3547 -13
-3586 -6 l-20 4 1 1361 1 1362 23 85 c13 47 28 90 33 97 5 7 7 16 4 22 -3 5
-3 11 1 13 5 1 17 21 29 43 42 79 59 110 64 115 3 3 21 25 40 50 19 25 42 54
50 64 45 58 264 266 280 266 4 0 10 4 12 8 2 4 23 23 48 42 25 19 47 37 50 40
3 3 21 17 40 30 19 14 40 28 45 33 16 13 206 147 295 207 45 30 88 61 96 68 8
7 14 10 14 7 0 -6 19 8 77 55 7 6 24 15 38 22 14 6 25 15 25 20 0 4 6 8 14 8
8 0 16 3 18 8 2 4 46 36 98 71 52 36 98 70 102 75 5 7 8 7 8 1 0 -6 3 -6 8 1
10 16 110 84 122 84 6 0 8 5 5 10 -3 6 -1 10 5 10 6 0 16 5 23 10 7 6 50 36
97 67 47 31 87 60 88 65 2 4 10 8 18 8 8 0 14 4 14 9 0 5 13 14 30 21 16 7 27
16 24 21 -3 5 2 9 10 9 9 0 24 7 33 15 62 52 130 92 147 88 10 -3 65 -38 122
-79z"/>
</g>
</svg>
